<svg width="115" height="80" viewBox="0 0 115 80" fill="none" xmlns="http://www.w3.org/2000/svg">
<path d="M0 52.5035C0 59.917 2.60028 66.2241 7.7455 71.5353C12.8907 76.8465 19.1978 79.6681 26.556 80C27.1646 80 27.4965 79.6681 27.4965 79.0595V71.6459C27.4965 70.982 27.1646 70.6501 26.556 70.6501C21.7981 70.4288 17.7593 68.5477 14.4398 65.0069C11.1203 61.4661 9.46058 57.3167 9.46058 52.5035C9.46058 47.9115 11.0097 43.9281 14.1632 40.4979C17.3167 37.0678 21.1895 35.1314 25.7815 34.5781L28.7137 34.3568C29.4329 34.3568 29.8202 34.0249 29.8202 33.4163L30.2628 30.3734C30.816 24.3983 33.3057 19.3638 37.787 15.3804C42.2683 11.3416 47.5242 9.34993 53.61 9.34993C59.6404 9.34993 64.8963 11.3416 69.4329 15.3804C73.9696 19.4191 76.5145 24.3983 77.1784 30.3734L77.5657 33.5823C77.5657 34.1909 77.8976 34.5228 78.5062 34.5228H87.4689C92.3928 34.5228 96.6528 36.2932 100.249 39.8894C103.845 43.4302 105.671 47.6348 105.671 52.5035C105.671 57.3167 104.011 61.4661 100.636 65.0069C97.2614 68.5477 93.2227 70.4288 88.5201 70.6501C87.8008 70.6501 87.4689 70.982 87.4689 71.6459V79.0595C87.4689 79.6681 87.8008 80 88.5201 80C93.3886 79.8894 97.8147 78.5615 101.853 76.0166C105.892 73.527 109.101 70.2075 111.425 66.0581C113.748 61.9087 114.91 57.3721 114.91 52.5035C114.91 47.5242 113.693 42.9322 111.203 38.7828C108.769 34.5781 105.394 31.314 101.189 28.8797C96.9848 26.4454 92.3928 25.2835 87.4135 25.2835H85.5878C83.7621 17.87 79.8893 11.8396 73.9696 7.0816C68.0498 2.32365 61.1895 0 53.5546 0C45.7538 0 38.7828 2.4343 32.7524 7.24758C26.722 12.0609 22.7939 18.3126 21.0788 25.8921C14.9931 27.3306 9.95851 30.5394 5.9751 35.5187C1.9917 40.4979 0 46.1411 0 52.5035ZM38.5615 60.9129C38.5615 62.2407 39.0041 63.3472 39.8893 64.2324L54.2185 78.6722C54.8824 79.5574 55.9889 79.9447 57.3721 79.9447C58.9212 79.9447 60.0277 79.5021 60.7469 78.6722L75.1314 64.2324C76.0166 63.2918 76.4592 62.13 76.4592 60.9129C76.4592 59.6404 76.0166 58.5339 75.1314 57.704C74.2462 56.8741 73.1397 56.4315 71.8119 56.4315C70.4841 56.4315 69.3776 56.8741 68.3817 57.704L62.1853 63.8451V41.8257C62.1853 40.4979 61.7427 39.4467 60.8022 38.5615C59.8617 37.6763 58.7552 37.2891 57.4274 37.2891C56.0996 37.2891 55.0484 37.7317 54.1632 38.5615C53.278 39.4467 52.8907 40.4979 52.8907 41.8257V63.8451L46.805 57.704C45.8091 56.8188 44.7026 56.4315 43.3195 56.4315C41.9364 56.4315 40.8299 56.8741 39.9447 57.704C39.0041 58.5339 38.5615 59.6404 38.5615 60.9129Z" fill="white"/>
</svg>
